# xmcd
#
# Track frame offsets: 
#        150
#        31985
#        95068
#        121925
#        182698
#
# Disc length: 3082 seconds
#
# Revision: 2
# Processed by: cddbd v1.5.2PL0 Copyright (c) Steve Scherf et al.
# Submitted via: ExactAudioCopy v1.0b3
#
DISCID=3a0c0805
DTITLE=Joseph Jarman - Song For
DYEAR=1991
DGENRE=Jazz
TTITLE0=Little Fox Run
TTITLE1=Non-Cognitive Aspects Of The City
TTITLE2=Adam's Rib
TTITLE3=Song For
TTITLE4=Little Fox Run
EXTD=YEAR: 1991 ID3G: 8
EXTT0=
EXTT1=
EXTT2=
EXTT3=
EXTT4=
PLAYORDER=
